<svg width="20" height="20" viewBox="0 0 20 20" fill="none" xmlns="http://www.w3.org/2000/svg">
<g clip-path="url(#clip0_314_781)">
<path d="M18.0856 15.379C17.7886 16.0653 17.4369 16.697 17.0295 17.2778C16.4742 18.0695 16.0195 18.6176 15.6691 18.9219C15.1259 19.4215 14.544 19.6773 13.9207 19.6919C13.4733 19.6919 12.9338 19.5645 12.3057 19.3063C11.6756 19.0492 11.0965 18.9219 10.567 18.9219C10.0117 18.9219 9.41612 19.0492 8.77908 19.3063C8.14107 19.5645 7.6271 19.6991 7.23413 19.7125C6.6365 19.7379 6.04081 19.4748 5.44621 18.9219C5.0667 18.5909 4.59201 18.0235 4.02336 17.2196C3.41324 16.3612 2.91163 15.3657 2.51867 14.2308C2.09781 13.005 1.88684 11.818 1.88684 10.6688C1.88684 9.35238 2.17129 8.21701 2.74104 7.26557C3.18881 6.50134 3.7845 5.8985 4.53005 5.45594C5.27561 5.01338 6.08118 4.78786 6.94872 4.77343C7.4234 4.77343 8.04589 4.92026 8.81946 5.20884C9.59084 5.49838 10.0861 5.64521 10.3033 5.64521C10.4656 5.64521 11.0159 5.47352 11.9486 5.13124C12.8307 4.81381 13.5752 4.68237 14.1851 4.73415C15.8377 4.86752 17.0793 5.51899 17.905 6.69267C16.4269 7.58822 15.6958 8.84253 15.7104 10.4516C15.7237 11.705 16.1784 12.7479 17.072 13.5761C17.4769 13.9604 17.9292 14.2575 18.4324 14.4685C18.3233 14.7849 18.2081 15.088 18.0856 15.379V15.379ZM14.2954 0.464258C14.2954 1.44663 13.9365 2.36386 13.2211 3.21284C12.3578 4.22211 11.3137 4.80532 10.1813 4.71329C10.1669 4.59544 10.1585 4.4714 10.1585 4.34106C10.1585 3.39799 10.5691 2.38871 11.2981 1.5635C11.6621 1.14567 12.125 0.798261 12.6864 0.521123C13.2466 0.24812 13.7765 0.0971432 14.2748 0.0712891C14.2893 0.202616 14.2954 0.333952 14.2954 0.464245V0.464258Z" fill="white"/>
</g>
<defs>
<clipPath id="clip0_314_781">
<rect width="19.6429" height="19.6429" fill="white" transform="translate(0.249878 0.0712891)"/>
</clipPath>
</defs>
</svg>
