<svg width="36" height="36" viewBox="0 0 36 36" fill="none" xmlns="http://www.w3.org/2000/svg">
<path d="M27.0141 27.2598C30.9202 27.2598 34 24.3928 34 20.8122C34 18.1455 32.4851 15.7793 29.9937 14.7402C30.0063 9.08138 25.9249 5 20.6792 5C17.349 5 14.8451 6.71518 13.2801 8.99374C10.1002 8.14241 6.75743 10.5086 6.63224 14.0391C3.76526 14.5524 2 17.1189 2 20.2613C2 24.0673 5.3302 27.2473 9.71205 27.2473L27.0141 27.2598ZM27.0141 24.7559H9.72457C6.74491 24.7559 4.52895 22.6776 4.52895 20.2613C4.52895 17.7574 6.06886 15.9045 8.62285 15.9045C8.81064 15.9045 8.88576 15.8044 8.87324 15.6291C8.79812 11.9108 11.4648 10.6338 14.1565 11.4851C14.3192 11.5352 14.4194 11.4977 14.4945 11.3599C15.734 9.18153 17.5618 7.49139 20.6667 7.49139C24.5978 7.49139 27.4022 10.6088 27.59 14.252C27.6275 14.928 27.5775 15.6541 27.5274 16.2551C27.5023 16.4304 27.5775 16.5305 27.7402 16.5556C30.0063 16.9937 31.471 18.5962 31.471 20.8122C31.471 23.0031 29.5305 24.7559 27.0141 24.7559Z" fill="white" stroke="white" stroke-width="1.1"/>
</svg>
