<svg width="16" height="15" viewBox="0 0 16 15" fill="none"
    xmlns="http://www.w3.org/2000/svg">
    <path d="M11.9339 3.46934C11.8698 3.40603 11.7934 3.35638 11.7095 3.32339C11.6256 3.2904 11.5359 3.27475 11.4458 3.27738H6.05468C5.84445 3.28104 5.68905 3.34685 5.5748 3.46111C5.31155 3.72436 5.30789 4.0973 5.55834 4.34775C5.61842 4.40814 5.68996 4.45591 5.76876 4.48825C5.84756 4.52058 5.93203 4.53684 6.0172 4.53605L7.87641 4.54885L10.1524 4.44647L9.14422 5.34043L4.17171 10.3129C3.89657 10.5872 3.89657 10.9656 4.16714 11.2361C4.43404 11.503 4.81155 11.503 5.08669 11.2279L10.0592 6.25541L10.9531 5.24628L10.8508 7.52321L10.8627 9.38151C10.8619 9.46689 10.8783 9.55156 10.9108 9.63052C10.9433 9.70949 10.9912 9.78115 11.0519 9.84128C11.3023 10.0917 11.6753 10.0881 11.9385 9.82483C12.0586 9.70069 12.1246 9.53408 12.1222 9.3614V3.95379C12.125 3.86454 12.1097 3.77565 12.0773 3.69242C12.045 3.60919 11.9962 3.53332 11.9339 3.46934Z" fill="white"/>
</svg>
