<svg width="32" height="40" viewBox="0 0 32 40" fill="none" xmlns="http://www.w3.org/2000/svg">
<g clip-path="url(#clip0_550_938)">
<path fill-rule="evenodd" clip-rule="evenodd" d="M5.55311 40C2.19153 40 0 38.02 0 34.9805V5.03691C0 1.98003 2.19153 0 5.55311 0H26.4469C29.8085 0 32 1.98003 32 5.03691V34.9805C32 38.02 29.8085 40 26.4469 40H5.55311ZM3.69588 5.59271V34.4073C3.69588 35.762 4.5502 36.5436 6.07313 36.5436H25.9269C27.4498 36.5436 28.3041 35.762 28.3041 34.4073V5.59271C28.3041 4.23795 27.4498 3.47373 25.9269 3.47373H6.07313C4.5502 3.47373 3.69588 4.23795 3.69588 5.59271Z" fill="white"/>
<path fill-rule="evenodd" clip-rule="evenodd" d="M12.2721 27.7328C11.0835 27.7328 10.5 27.1061 10.5 25.831V20.169C10.5 19.1532 10.8674 18.5914 11.6238 18.3752V16.9273C11.6238 13.9882 13.3959 12 15.9892 12C18.6041 12 20.3762 13.9882 20.3762 16.9273V18.3536C21.111 18.5697 21.5 19.1532 21.5 20.169V25.831C21.5 27.1061 20.9165 27.7328 19.7063 27.7328H12.2721ZM13.8929 16.7544V18.2888H18.0855V16.7544C18.0855 15.1984 17.2642 14.2259 15.9892 14.2259C14.7141 14.2259 13.8929 15.1984 13.8929 16.7544Z" fill="white"/>
</g>
<defs>
<clipPath id="clip0_550_938">
<rect width="32" height="40" fill="white"/>
</clipPath>
</defs>
</svg>
