<svg width="28" height="28" viewBox="0 0 28 28" fill="none" xmlns="http://www.w3.org/2000/svg">
<g clip-path="url(#clip0_335_1904)">
<path d="M10.4031 4C6.31451 4 3.00002 7.31449 3.00002 11.4031C3.00002 15.4906 6.3126 18.8043 10.3996 18.8062L10.4031 18.8062H10.4067H11.4133H18.8125C19.4036 18.8062 20.25 18.1998 20.25 17.0812C20.25 15.9627 19.4036 15.3562 18.8125 15.3562H16.6636H11.379H10.1421C8.19921 15.3562 6.45002 13.6368 6.45002 11.3312C6.45002 9.0257 8.19921 7.30625 10.1421 7.30625H16.5703C15.2437 5.31328 12.9768 4 10.4031 4Z" fill="white"/>
<path d="M18.5969 24.4125C22.6855 24.4125 26 21.098 26 17.0094C26 12.9207 22.6855 9.60625 18.5969 9.60625H17.5867H10.1421C9.57594 9.60625 8.75002 10.1868 8.75002 11.3312C8.75002 12.4757 9.57594 13.0562 10.1421 13.0562H12.3364H17.621H18.8125C20.7305 13.0562 22.55 14.7498 22.55 17.0812C22.55 19.4126 20.7305 21.1062 18.8125 21.1062H12.4297C13.7563 23.0992 16.0232 24.4125 18.5969 24.4125Z" fill="white"/>
</g>
<defs>
<clipPath id="clip0_335_1904">
<rect width="27.4286" height="27.4286" fill="white" transform="translate(0.571411 0.2854)"/>
</clipPath>
</defs>
</svg>
