<svg width="36" height="36" viewBox="0 0 36 36" fill="none" xmlns="http://www.w3.org/2000/svg">
<path d="M10.9858 33C11.7962 33 12.3934 32.6019 13.3744 31.7346L18.2512 27.4408H26.8104C31.09 27.4408 33.4929 24.9668 33.4929 20.7441V9.69668C33.4929 5.47393 31.09 3 26.8104 3H8.68246C4.41706 3 2 5.47393 2 9.69668V20.7441C2 24.981 4.48815 27.4408 8.58294 27.4408H9.16588V30.9242C9.16588 32.1896 9.83412 33 10.9858 33ZM11.6967 29.8152V25.763C11.6967 24.9242 11.327 24.5972 10.5308 24.5972H8.78199C6.109 24.5972 4.82938 23.2464 4.82938 20.6588V9.78199C4.82938 7.19431 6.109 5.8436 8.78199 5.8436H26.7251C29.3839 5.8436 30.6635 7.19431 30.6635 9.78199V20.6588C30.6635 23.2464 29.3839 24.5972 26.7251 24.5972H18.0948C17.2275 24.5972 16.8009 24.7393 16.2038 25.3649L11.6967 29.8152ZM17.7536 17.5735C18.5355 17.5735 18.9763 17.1327 19.0047 16.3081L19.218 9.46919C19.2464 8.63033 18.6209 8.01896 17.7393 8.01896C16.8578 8.01896 16.2464 8.61611 16.2749 9.45498L16.4739 16.3081C16.5024 17.1185 16.9573 17.5735 17.7536 17.5735ZM17.7536 22.2938C18.6777 22.2938 19.4313 21.6256 19.4313 20.7156C19.4313 19.8199 18.6777 19.1517 17.7536 19.1517C16.8294 19.1517 16.0758 19.8199 16.0758 20.7156C16.0758 21.6114 16.8436 22.2938 17.7536 22.2938Z" fill="white" stroke="white" stroke-width="0.5"/>
</svg>
